<svg width="1000" height="1076" viewBox="0 0 1000 1076" fill="none" xmlns="http://www.w3.org/2000/svg">
<path fill-rule="evenodd" clip-rule="evenodd" d="M579.975 100.924C586.944 102.346 798.043 140.363 871.656 372.76C879.846 398.614 884.592 420.652 888.853 462.988C895.768 589.423 871.06 716.72 944.507 819.287C971.001 856.287 1000.55 866.503 999.992 903.93C999.571 932.176 976.726 960.059 941.162 960.973C917.858 961.572 653.217 959.887 650.943 961.82C647.204 964.999 644.922 1006.56 596.817 1044.92C540.004 1090.22 447.053 1088.33 392.305 1012.98C372.928 986.313 371.221 962.528 366.848 961.247C361.297 959.619 59.5417 962.726 46.3502 959.586C9.32167 950.769 -22.4443 903.036 20.9353 857.777C63.9577 812.892 101.29 763.02 102.611 621.311C103.955 477.16 93.1866 419.244 141.915 315.226C175.003 244.595 262.153 126.624 430.952 96.9256C439.933 95.345 424.367 87.9786 429.684 54.7812C439.215 -4.71694 527.523 -24.2204 558.55 39.3496C572.114 67.1445 558.686 94.0589 559.008 95.3529C559.489 97.2881 560.338 96.5697 579.975 100.924Z" fill="#F2F3EF"/>
<path fill-rule="evenodd" clip-rule="evenodd" d="M882.413 752.114C902.384 811.76 926.138 844.31 958.923 875.731C990.895 906.373 961.475 930.95 945.092 932.632C934.27 933.741 191.55 933.046 126.026 932.985C55.3967 932.918 40.334 937.07 29.5042 912.946C8.29064 865.694 119.808 868.514 128.483 643.545C130.796 583.528 123.456 471.63 136.815 410.71C139.056 400.494 159.627 291.802 253.176 210.74C414.003 71.3777 626.449 99.7849 751.487 223.51C864.574 335.409 862.651 466.107 862.908 499.622C863.915 630.238 857.62 664.955 882.413 752.114Z" fill="#030303"/>
<path fill-rule="evenodd" clip-rule="evenodd" d="M357.668 513.709C352.577 512.542 326.769 507.94 322.607 500.768C312.403 483.183 383.798 490.187 433.053 458.437C468.836 435.371 471.532 355.911 481.635 337.219C495.02 312.449 503.046 374.34 504.134 379.255C520.571 453.435 541.248 462.774 580.115 474.529C614.823 485.027 619.166 484.085 627.201 486.35C648.918 492.469 651.075 492.76 652.972 495.861C662.704 511.772 592.112 513.093 552.429 533.346C499.575 560.32 506.388 653.526 491.121 664.542C473.125 677.528 478.137 613.925 454.646 566.242C449.538 555.873 442.696 529.716 357.668 513.709Z" fill="#F2F3EF"/>
<path fill-rule="evenodd" clip-rule="evenodd" d="M506.651 434.252C527.575 481.907 570.477 486.185 597.008 494.555C601.763 496.054 616.722 496.18 611.473 500.959C610.113 502.197 545.423 507.152 517.35 544.195C510.045 553.833 496.16 581.647 490.501 618.578C489.277 626.562 485.601 621.908 485.284 620.22C475.624 568.587 465.01 552.289 461.656 547.14C446.354 523.644 417.706 514.884 394.33 507.238C381.112 502.915 362.093 502.587 365.842 497.267C368.585 493.372 426.763 493.624 458.176 453.687C467.907 441.316 474.605 421.024 480.825 400.25C484.852 386.803 484.369 370.066 489.425 376.848C490.815 378.713 494.316 406.547 506.651 434.252Z" fill="#030303"/>
<path fill-rule="evenodd" clip-rule="evenodd" d="M610.148 961.275C619.027 961.293 624.678 959.511 621.411 967.855C579.592 1074.64 454.718 1067.88 409.24 991.229C393.133 964.083 396.93 961.564 399.428 961.156C406.898 959.939 593.291 961.164 610.148 961.275Z" fill="#030303"/>
<path fill-rule="evenodd" clip-rule="evenodd" d="M287.241 239.574C308.816 220.128 344.544 197.422 377.343 184.589C390.425 179.47 398.631 193.699 394.615 202.769C390.396 212.295 349.73 220.988 308.062 256.461C191.742 355.486 199.928 489.651 199.794 494.409C199.313 511.248 185.094 513.551 177.072 506.147C166.748 496.619 178.139 430.539 179.992 422.496C203.868 318.786 255.861 267.92 287.241 239.574Z" fill="#F2F3EF"/>
<path fill-rule="evenodd" clip-rule="evenodd" d="M675.483 613.668C684.631 617.943 686.502 622.036 677.965 627.466C667.122 634.363 632.997 627.551 626.334 661.957C626.036 663.496 620.118 702.223 607.726 690.465C600.86 683.952 601.58 645.934 584.98 638.972C568.449 632.04 534.343 628.379 545.099 616.372C552.192 608.454 590.256 609.326 595.599 591.173C599.114 579.235 604.631 539.348 617.767 552.181C629.494 563.638 617.182 594.985 649.436 605.452C662.46 609.676 662.464 609.386 675.483 613.668Z" fill="#F2F3EF"/>
<path fill-rule="evenodd" clip-rule="evenodd" d="M462.315 44.3132C464.41 41.805 479.173 24.1202 498.912 26.164C548.464 31.2957 541.682 93.7286 525.084 92.8323C496.245 91.2753 496.369 91.7201 467.52 92.636C460.225 92.8676 446.579 68.3974 462.315 44.3132Z" fill="#030303"/>
<path fill-rule="evenodd" clip-rule="evenodd" d="M642.774 361.389C649.475 363.668 651.329 361.934 653.707 368.641C658.798 382.995 620.501 378.728 615.873 395.076C614.809 398.832 607.174 437.458 595.973 423.577C588.194 413.938 592.003 387.233 569.492 382.267C566.554 381.618 552.112 380.568 548.616 372.718C544.955 364.496 560.415 361.538 561.785 361.276C595.178 354.887 584.175 341.197 594.488 321.705C604.707 302.39 612.356 334.255 612.79 336.064C617.582 356.024 622.726 358.309 642.774 361.389Z" fill="#F2F3EF"/>
<path fill-rule="evenodd" clip-rule="evenodd" d="M586.655 616.462C587.471 616.295 594.753 616.642 600.51 610.434C609.359 600.893 610.747 575.838 615.816 592.387C625.066 622.583 647.577 614.416 647.55 621.234C647.538 624.363 623.868 622.553 616.316 647.362C610.719 665.746 611.905 638.754 595.43 628.373C588.882 624.247 567.466 620.236 586.655 616.462Z" fill="#030303"/>
<path fill-rule="evenodd" clip-rule="evenodd" d="M606.512 382.055C604.706 386.102 601.818 394.343 598.792 389.468C597.145 386.815 598.535 379.968 587.668 374.497C576.259 368.754 589.458 368.378 593.893 363.09C598.483 357.618 599.548 346.961 603.199 352.088C606.072 356.124 601.434 361.65 616.415 368.06C625.03 371.748 614.055 372.144 606.512 382.055Z" fill="#030303"/>
<path fill-rule="evenodd" clip-rule="evenodd" d="M130.598 708.883C130.632 709.97 131.32 731.971 128.26 722.29C128.097 721.777 128.125 721.864 127.829 715.573C127.56 709.868 129.016 710.342 130.598 708.883Z" fill="#030303"/>
<path fill-rule="evenodd" clip-rule="evenodd" d="M868.986 728.581C868.058 732.038 870.136 735.279 866.956 733.51C865.81 732.872 865.584 719.952 867.811 721.692C870.9 724.106 869.653 724.731 868.986 728.581Z" fill="#030303"/>
<path fill-rule="evenodd" clip-rule="evenodd" d="M887.089 782.328C887.604 783.151 888.802 783.381 889.319 784.203C889.512 784.514 890.089 793.04 889.691 793.498C886.549 797.115 887.055 783.245 887.089 782.328Z" fill="#030303"/>
<path fill-rule="evenodd" clip-rule="evenodd" d="M577.517 28.7251C573.226 31.4231 575.017 27.5842 575.156 27.418C576.328 26.0141 576.955 26.943 578.168 25.5299C578.924 24.6507 577.927 24.2333 578.832 23.5372C581.297 21.6452 585.45 27.8969 580.115 27.5253C578.516 27.4141 578.834 28.1167 577.517 28.7251Z" fill="#030303"/>
<path fill-rule="evenodd" clip-rule="evenodd" d="M887.354 389.841C886.873 388.1 886.743 386.124 886.722 385.797C886.322 379.675 889.535 383.049 889.584 383.347C890.276 387.592 891.688 389.392 887.354 389.841Z" fill="#030303"/>
<path fill-rule="evenodd" clip-rule="evenodd" d="M385.789 1013.75C387.168 1013.79 388.186 1012.29 389.026 1015.14C389.425 1016.49 389.365 1016.45 388.919 1017.72C386.17 1025.52 385.802 1014.15 385.789 1013.75Z" fill="#030303"/>
<path fill-rule="evenodd" clip-rule="evenodd" d="M535.437 431.328C537.041 433.821 538.326 434.474 535.776 435.978C526.074 441.704 535.187 431.606 535.437 431.328Z" fill="#030303"/>
</svg>
