<svg width="1080" height="1080" viewBox="0 0 1080 1080" fill="none" xmlns="http://www.w3.org/2000/svg">
<rect width="1080" height="1080" fill="#030303"/>
<path fill-rule="evenodd" clip-rule="evenodd" d="M589.285 269.521C593.602 270.402 724.375 293.953 769.977 437.919C775.05 453.935 777.99 467.587 780.63 493.814C784.914 572.138 769.608 650.996 815.107 714.535C831.52 737.456 849.824 743.785 849.479 766.97C849.218 784.468 835.066 801.741 813.034 802.307C798.599 802.679 634.658 801.635 633.249 802.832C630.932 804.801 629.519 830.547 599.719 854.308C564.524 882.371 506.942 881.201 473.027 834.525C461.023 818.005 459.965 803.27 457.257 802.477C453.817 801.468 266.885 803.393 258.713 801.448C235.775 795.986 216.096 766.416 242.969 738.379C269.621 710.573 292.747 679.678 293.566 591.892C294.398 502.593 287.728 466.715 317.914 402.278C338.411 358.522 392.4 285.442 496.968 267.044C502.531 266.065 492.888 261.501 496.182 240.936C502.086 204.078 556.792 191.996 576.013 231.376C584.416 248.595 576.097 265.268 576.296 266.07C576.595 267.268 577.121 266.823 589.285 269.521Z" fill="#F2F3EF"/>
<path fill-rule="evenodd" clip-rule="evenodd" d="M776.641 672.922C789.013 709.871 803.728 730.035 824.038 749.5C843.844 768.482 825.619 783.708 815.47 784.749C808.766 785.436 348.663 785.006 308.072 784.968C264.318 784.927 254.987 787.499 248.278 772.554C235.137 743.282 304.22 745.029 309.594 605.665C311.027 568.485 306.48 499.166 314.755 461.427C316.144 455.099 328.887 387.765 386.839 337.549C486.469 251.216 618.076 268.814 695.535 345.46C765.59 414.779 764.399 495.744 764.559 516.507C765.182 597.421 761.282 618.928 776.641 672.922Z" fill="#030303"/>
<path fill-rule="evenodd" clip-rule="evenodd" d="M451.569 525.236C448.415 524.513 432.428 521.662 429.85 517.22C423.528 506.326 467.757 510.665 498.269 490.996C520.436 476.707 522.107 427.483 528.365 415.904C536.657 400.559 541.629 438.9 542.303 441.944C552.485 487.897 565.294 493.683 589.372 500.965C610.873 507.468 613.563 506.884 618.541 508.288C631.994 512.078 633.33 512.258 634.506 514.179C640.534 524.037 596.804 524.854 572.22 537.401C539.478 554.111 543.699 611.851 534.241 618.675C523.093 626.719 526.198 587.319 511.646 557.78C508.481 551.356 504.243 535.152 451.569 525.236Z" fill="#F2F3EF"/>
<path fill-rule="evenodd" clip-rule="evenodd" d="M543.862 476.011C556.825 505.533 583.402 508.182 599.837 513.367C602.783 514.296 612.05 514.374 608.798 517.335C607.956 518.102 567.881 521.171 550.49 544.119C545.965 550.089 537.363 567.32 533.858 590.198C533.1 595.144 530.822 592.261 530.626 591.215C524.642 559.229 518.067 549.133 515.989 545.943C506.51 531.388 488.763 525.961 474.282 521.225C466.093 518.547 454.311 518.343 456.633 515.048C458.333 512.635 494.373 512.791 513.833 488.051C519.861 480.387 524.01 467.816 527.864 454.947C530.359 446.617 530.06 436.248 533.191 440.45C534.052 441.605 536.221 458.848 543.862 476.011Z" fill="#030303"/>
<path fill-rule="evenodd" clip-rule="evenodd" d="M607.976 802.495C613.477 802.506 616.978 801.402 614.954 806.571C589.048 872.721 511.69 868.532 483.517 821.051C473.539 804.234 475.892 802.674 477.439 802.421C482.066 801.667 597.534 802.426 607.976 802.495Z" fill="#030303"/>
<path fill-rule="evenodd" clip-rule="evenodd" d="M407.942 355.412C421.307 343.365 443.44 329.299 463.759 321.349C471.863 318.178 476.947 326.993 474.458 332.612C471.845 338.513 446.653 343.898 420.84 365.873C348.782 427.218 353.853 510.331 353.77 513.278C353.472 523.71 344.663 525.136 339.694 520.549C333.299 514.647 340.355 473.712 341.503 468.729C356.294 404.483 388.503 372.972 407.942 355.412Z" fill="#F2F3EF"/>
<path fill-rule="evenodd" clip-rule="evenodd" d="M648.452 587.159C654.119 589.807 655.278 592.342 649.989 595.706C643.272 599.979 622.132 595.759 618.005 617.073C617.82 618.026 614.154 642.017 606.477 634.733C602.224 630.698 602.67 607.147 592.387 602.834C582.146 598.54 561.018 596.272 567.681 588.834C572.075 583.929 595.655 584.469 598.965 573.223C601.142 565.828 604.56 541.119 612.698 549.069C619.963 556.166 612.335 575.585 632.316 582.069C640.384 584.686 640.387 584.506 648.452 587.159Z" fill="#F2F3EF"/>
<path fill-rule="evenodd" clip-rule="evenodd" d="M516.398 234.45C517.695 232.896 526.841 221.941 539.069 223.207C569.766 226.386 565.564 265.062 555.282 264.507C537.417 263.542 537.494 263.818 519.622 264.385C515.103 264.529 506.649 249.37 516.398 234.45Z" fill="#030303"/>
<path fill-rule="evenodd" clip-rule="evenodd" d="M628.19 430.873C632.34 432.285 633.489 431.211 634.963 435.366C638.116 444.258 614.392 441.615 611.525 451.742C610.866 454.069 606.136 477.997 599.197 469.398C594.378 463.426 596.738 446.883 582.792 443.807C580.973 443.405 572.026 442.754 569.86 437.892C567.592 432.798 577.17 430.966 578.018 430.803C598.704 426.846 591.888 418.365 598.277 406.29C604.608 394.325 609.346 414.064 609.615 415.185C612.583 427.55 615.77 428.965 628.19 430.873Z" fill="#F2F3EF"/>
<path fill-rule="evenodd" clip-rule="evenodd" d="M593.423 588.89C593.928 588.786 598.44 589.001 602.006 585.156C607.488 579.245 608.348 563.724 611.488 573.976C617.218 592.682 631.163 587.622 631.146 591.846C631.139 593.784 616.476 592.663 611.798 608.032C608.33 619.42 609.065 602.699 598.859 596.268C594.803 593.713 581.536 591.227 593.423 588.89Z" fill="#030303"/>
<path fill-rule="evenodd" clip-rule="evenodd" d="M605.725 443.679C604.606 446.186 602.817 451.291 600.942 448.27C599.922 446.627 600.783 442.386 594.051 438.996C586.984 435.439 595.16 435.206 597.908 431.93C600.751 428.54 601.411 421.938 603.672 425.115C605.452 427.614 602.579 431.038 611.86 435.009C617.196 437.293 610.397 437.539 605.725 443.679Z" fill="#030303"/>
<path fill-rule="evenodd" clip-rule="evenodd" d="M310.903 646.141C310.924 646.814 311.351 660.444 309.455 654.446C309.354 654.129 309.371 654.182 309.188 650.285C309.021 646.751 309.923 647.044 310.903 646.141Z" fill="#030303"/>
<path fill-rule="evenodd" clip-rule="evenodd" d="M768.324 658.344C767.749 660.485 769.036 662.493 767.067 661.397C766.357 661.002 766.217 652.998 767.596 654.076C769.51 655.572 768.737 655.958 768.324 658.344Z" fill="#030303"/>
<path fill-rule="evenodd" clip-rule="evenodd" d="M779.539 691.641C779.858 692.15 780.6 692.293 780.92 692.802C781.04 692.995 781.397 698.277 781.151 698.56C779.204 700.801 779.518 692.209 779.539 691.641Z" fill="#030303"/>
<path fill-rule="evenodd" clip-rule="evenodd" d="M587.763 224.795C585.105 226.466 586.214 224.088 586.3 223.985C587.026 223.115 587.415 223.691 588.166 222.815C588.635 222.271 588.017 222.012 588.578 221.581C590.105 220.409 592.678 224.282 589.372 224.051C588.382 223.983 588.579 224.418 587.763 224.795Z" fill="#030303"/>
<path fill-rule="evenodd" clip-rule="evenodd" d="M779.702 448.501C779.404 447.422 779.323 446.199 779.31 445.996C779.062 442.203 781.053 444.294 781.083 444.479C781.512 447.108 782.387 448.223 779.702 448.501Z" fill="#030303"/>
<path fill-rule="evenodd" clip-rule="evenodd" d="M468.99 834.997C469.845 835.023 470.475 834.098 470.996 835.862C471.243 836.7 471.205 836.673 470.929 837.459C469.226 842.292 468.998 835.248 468.99 834.997Z" fill="#030303"/>
<path fill-rule="evenodd" clip-rule="evenodd" d="M561.695 474.199C562.689 475.743 563.485 476.148 561.905 477.08C555.895 480.627 561.541 474.371 561.695 474.199Z" fill="#030303"/>
<path fill-rule="evenodd" clip-rule="evenodd" d="M911.197 834.517C902.924 838.999 902.443 838.224 846.608 838.345C841.287 838.357 838.488 836.62 838.657 842.445C839.124 858.533 838.589 885.188 838.514 888.904C837.828 923.069 823.687 925.939 782.92 924.808C741.384 923.655 749.563 897.026 748.633 843.938C748.626 843.488 748.549 839.158 747.012 838.56C744.594 837.622 689.449 839.408 683.2 837.442C661.488 830.607 664.13 820.79 662.182 806.49C662.124 806.062 660.863 771.523 665.89 762.939C676.707 744.47 696.846 749.823 730.468 749.165C743.263 748.915 749.619 750.041 749.159 747.292C748.717 744.653 747.478 697.029 750.01 685.111C750.413 683.218 751.549 660.038 785.166 660.056C807.341 660.068 831.882 657.542 837.037 685.057C840.425 703.141 836.945 747.938 839.083 748.847C842.068 750.116 896.722 747.152 906.586 750.938C924.012 757.626 924.916 770.298 924.631 798.988C924.348 827.59 918.985 829.631 911.197 834.517Z" fill="#F2F3EF"/>
<path fill-rule="evenodd" clip-rule="evenodd" d="M677.609 775.772C678.087 772.649 677.838 765.391 684.89 762.608C690.974 760.207 699.659 760.736 719.979 760.661C756.961 760.524 757.682 761.004 760.346 757.703C764.427 752.646 760.364 710.044 762.725 687.348C763.905 676.017 769.236 673.861 808.402 675.152C827.825 675.794 825.79 683.684 825.84 727.056C825.873 754.625 824.127 760.634 833.87 760.719C881.434 761.135 903.577 757.772 907.75 767.653C911.425 776.356 909.22 814.321 909.122 815.504C908.128 827.466 899.993 825.839 869.836 825.901C831.716 825.98 829.662 824.708 826.646 831.336C824.51 836.029 827.138 877.166 825.084 895.666C823.662 908.475 820.83 909.673 799.406 910.204C762.451 911.12 764.015 904.532 763.724 903.782C760.367 895.13 763.151 844.32 761.72 834.999C759.885 823.047 754.789 826.552 722.226 826.008C686.544 825.412 681.526 827.693 678.195 818.406C676.431 813.486 676.963 785.111 677.609 775.772Z" fill="#030303"/>
</svg>
